<svg xmlns="http://www.w3.org/2000/svg" width="1023.002" height="523.001" viewBox="0 0 1023.002 523.001">
  <g id="Vector_Smart_Object" data-name="Vector Smart Object" transform="translate(0.002 -249.614)" opacity="0.06">
    <path id="Path_29" data-name="Path 29" d="M452.952,421.111l-4.413,5.874-2.938,2.94-5.88,3.23-.884,2.646s-2.353,2.351-2.058,3.819a27.715,27.715,0,0,1,.3,4.115,76.749,76.749,0,0,1-5.882,4.993,28.8,28.8,0,0,0-4.119,3.821,16.634,16.634,0,0,1-2.351,2.349,17.815,17.815,0,0,0-3.527,4.113c-1.178,1.764-2.353,2.938-2.94,3.819a18.5,18.5,0,0,0-3.235,6.17,33.1,33.1,0,0,1-3.235,7.051l-.589,1.468c.295,5,.293,5.878.882,7.642s1.176,1.174.587,4.995-.587,5.287-1.174,7.051-2.353,4.993-2.938,6.462,1.174,4.113,1.174,4.113.882,3.821.293,4.7.295,2.646.295,2.646a34.442,34.442,0,0,1,4.708,3.23c1.176,1.178,3.233,2.938,3.527,3.821s2.645,4.995,2.94,5.876a47.97,47.97,0,0,0,3.235,4.995c.587.881,3.527,4.115,3.527,4.115a41.453,41.453,0,0,1,4.706,4.111c.884,1.175,3.529,1.762,4.411,2.643s2.94.585,4.115,1.47,3.529-.589,4.706,0,4.411-.587,5.293-1.178,2.94-2.643,4.411-1.76,2.353,0,3.529.292,2.938-1.176,4.115-1.176,4.115-1.174,5-1.174,3.822-1.764,5-1.764,2.645-1.174,4.114-.587.882-1.174,3.529-.294,3.527,0,4.409.881,2.06,0,2.942,1.178,2.353,2.053,2.645,3.23,2.058,2.353,2.058,2.353l1.764.29s2.355-1.76,2.942-.587,3.235.883,3.235.883l2.645,2.938.884,1.174s1.764,4.7,1.467,6.467-.293,5.581-1.174,6.463-1.471,4.7-1.471,4.7S502.35,568.9,505,571.249a40.523,40.523,0,0,1,5.293,5.581c.884,1.175,3.235,4.41,3.527,6.467s.882,3.23,2.06,5.874,2.646,2.938,2.938,5.878.884,2.938.589,4.995-1.176,2.351-.293,3.817,2.056,4.118,1.764,5-.884,4.7-.884,4.7l-.587,1.764-2.646,5-1.766,2.641c-.587,2.057-1.762,4.115-1.469,7.051s-1.471,2.94.882,5.874,3.525,6.174,5,8.818a23.625,23.625,0,0,1,2.645,7.051c.295,1.762,1.471,2.351,2.058,4.7a19.827,19.827,0,0,1,.882,4.993c0,1.47-.295,5.291.295,6.172s.882,3.527,1.176,4.7-.882,1.468.882,3.527,2.942,3.23,4.117,4.7a7.151,7.151,0,0,1,1.764,2.94c.884,2.057,2.058,3.232,2.355,4.993s.587,6.168,1.469,8.227,2.056,4.115,2.056,4.115,3.237,2.057,4.411,1.76,3.529-2.934,5.3-2.057,3.233,0,4.7,0,2.942-1.76,4.411-1.76,3.527-2.351,4.706-1.764,2.643-.589,4.117-2.057,2.351-2.643,5-4.992,2.355-2.355,4.117-3.823,3.531-4.7,5.588-5.287,2.646-2.643,3.235-4.113a13.09,13.09,0,0,1,1.764-3.527c.882-1.178.293.3,1.766-3.525s3.237-5.287,4.706-6.17,2.351-2.643,3.235-2.938,2.351.879,1.764-1.766,0-6.461-.587-7.344-1.473,2.055-1.176-2.353,3.529-8.814,3.529-8.814,4.409-5.581,5.882-6.463,1.762-1.762,3.822-2.938,6.467-4.114,6.467-5.583,1.766-5.287,1.766-6.17a52.976,52.976,0,0,0-.587-6.759c-.587-4.995.587-3.819-1.176-8.521s-2.06-10.578-3.235-12.044-.589-5.291-.589-6.465,2.06-4.113,2.942-5.289,4.7-5.878,4.7-5.878,5.88-6.757,7.939-9.987,4.119-6.17,5.586-7.346,5-3.823,7.059-6.759,6.175-8.521,6.469-9.4a26.979,26.979,0,0,1,2.646-3.817s3.235-3.821,3.822-5.878,3.525-13.518,2.938-12.931-4.115,1.178-5.293,1.47,1.768,1.47-6.762.883-12.937.881-12.937.881c-2.645-.591-4.7,2.349-5.588-1.764s-1.471-6.463-3.233-9.4-2.942-4.113-5.588-7.935-2.353-2.057-4.7-4.993-2.942-2.059-4.413-5.878-2.645-2.349-4.409-7.64-2.94-5.878-3.822-8.814-2.058-3.821-2.648-6.465-7.349-16.159-8.231-17.043-2.355-5.583-2.058-4.7,4.411,3.819,4.411,3.819a15.56,15.56,0,0,1,3.233-.881c.884,0,4.411,3.232,4.411,4.406s6.179,6.761,7.648,10.874,3.235,7.049,3.525,8.225,3.235,5.878,4.413,7.64,5,5.289,5.584,7.053,6.179,7.638,6.179,11.457,2.643,8.816,2.938,9.989,5.588,2.646,5.588,2.646l7.057-1.762s10.584-6.761,11.76-6.761,10.588-4.406,10.588-4.406,3.82-3.525,6.467-5.579,5.586-5.876,6.175-7.642,1.764-2.057,4.115-4.7,5.588-5.289,3.531-7.053-3.237-1.174-6.177-4.113-2.645-2.349-4.706-6.17.295-8.227-4.117-3.819-2.645,5.583-7.059,6.467-6.173,3.819-8.231.879-4.115-1.173-5.293-5.581-2.06-4.7-2.351-6.462,0-1.764-2.355-6.174-.587-11.163.884-7.344,3.822,4.406,7.646,7.051,5.588,4.7,9.113,4.995,6.469,0,7.057.587,1.178-.292,2.648.292,2.056-.879,2.646,1.47,3.824,2.645,5.293,4.113,1.471.883,5.295,1.468a73.871,73.871,0,0,0,9.115.589l5.588-.294,6.467.585s4.708,2.646,5.882,2.646,1.469,3.234,4.409,5,3.529,2.057,5.293,4.111,1.471,2.94,3.822,5,6.179-.292,6.766-1.174,3.525-2.351,2.94,0,2.938,1.468,2.056,7.051-1.471,4.111,0,7.935,7.938,15.571,8.235,19.1,2.058,2.353,2.351,5.588,2.058,4.4,2.058,6.757,2.06,2.934,2.351,4.7,3.531.294,4.413,0,5-4.111,5-4.111,1.766-.587,1.471-3.527,0-2.349,0-6.757-1.766-4.406-.882-8.814,3.233-7.051,3.822-9.108,2.94-5.581,4.115-5.876,7.646-3.525,9.117-5.583a61.024,61.024,0,0,1,6.177-6.757c2.351-2.349,6.467-5.289,7.349-4.408s.587.587,2.058.587,4.119,1.178,6.175,1.472,6.177,5.287,7.059,7.932.295,2.055,3.529,5.876,6.175,1.468,6.175,6.17,0,4.406,1.471,6.17,3.233-3.232,5-2.643,2.056-.587,3.527,4.113,2.351,4.7,2.648,9.4-.3.29-.3,4.109-.292,4.115.3,7.64,2.643,4.7,2.351,5.291c0,0,1.766-4.995,1.174-8.521s0-8.519,1.471-9.989,2.942-2.938,4.117.881,1.766.881,4.411,5.287,5,3.527,5.293,5.583,1.768,2.351,3.822,4.113,3.822-.292,6.177-2.057,8.818-8.227,9.117-10.872,2.938-2.057-1.766-8.812-4.706-9.11-9.706-13.221-7.936-4.408-4.112-9.7,5.588-8.816,7.94-7.344,6.465,1.171,6.465,7.051-1.176,12.338,2.94,5.287,6.177-11.165,5-9.987,2.648-2.351,2.648-2.351.295-2.643,5.293-3.819,6.467-1.764,8.233-2.646,6.764-6.759,7.644-9.4,3.235-7.344,2.648-9.4-3.529-12.046-4.119-11.754-.291.294-4.112-3.819-6.469-7.051-7.059-8.816-2.058-2.057-.295-4.406,2.648-2.057,2.94-4.113,2.645-3.821-1.766-2.349-1.174.589-5,.294-13.819,2.055-8.82-4.113,6.465-9.989,7.349-9.989,5.3-5,5.586-.294,2.058,3.525,2.355,6.463,6.173-3.23,6.173-3.23a9.216,9.216,0,0,1,3.529,2.055c1.469,1.47,1.471,6.172,1.471,6.172s-1.177-1.472,2.058.879,6.76,1.176,6.76,6.172,0,5.289,2.06,6.462,4.115.589,5.882-.881,4.7-6.757,4.7-6.757.295-2.057-4.411-5a90.965,90.965,0,0,1-9.408-6.463c-1.762-1.47-1.176-5.876.585-7.64s2.648-2.646,2.058-4.995.884-4.113,5.3-3.821,5.291-.292,5.291-.292.886.587.886-1.176,5.583-9.989,4.112-9.989.3-2.057-.587-5.289,2.942-8.227-.293-10.578-4.119-3.527-6.175-7.051-1.766-4.113-9.412-5-11.171,1.764-12.937-.585-2.646,3.525-3.822-3.527a17.989,17.989,0,0,1,1.766-11.754s4.7-2.938,5.878-4.995,5.88-2.94,9.708-1.468,9.405,1.174,14.113,2.057,4.409,3.819,6.764,0,0-5.583,1.762-7.64,3.822-5.289,5.293-3.232,4.413,4.111,6.766,1.468,3.235-2.938,3.235-2.938l1.172,1.178s2.648-1.472,2.648,1.171,2.647,5.583,1.176,7.64-3.529,1.764-3.529,6.759,0,4.113,3.233,8.229,5.293.585,5.88,4.993,1.176,3.529,4.413,6.467,2.646,2.936,5,4.7,3.531,3.529,3.531.591a56.676,56.676,0,0,0,0-7.053c-.3-2.643,2.351-4.7.585-9.108s-.295-4.113-3.822-7.346-5.882.589-7.057-4.113,5.586-6.757,7.351-7.346,4.407-4.113,5-1.76-4.411,10.87,4.119,1.76,4.7-5.287,4.7-5.287,4.409-.589,5.293,0,3.237-2.646,2.349-2.349-9.4-4.7-9.4-4.7l-6.179-3.525s2.06-1.47,3.531-1.176,1.766-2.938,3.237-3.234,11.464,2.059,13.526,3.234,9.408,1.468,8.524.881-5.583-4.113-5.88-5.289-10.586-3.527-13.819-3.232-6.173,1.173-8.82.292-6.469-3.232-8.528-3.232-27.934-4.995-29.109-4.7-2.942,5.874-3.824,4.995-2.351-.883-6.471-2.059a90.872,90.872,0,0,0-17.053-2.643c-7.353-.585-12.348.589-14.406-1.762s-6.467-1.47-11.468-1.764-10.879,0-13.526,0a97.48,97.48,0,0,1-10.289-.587c-1.471-.294-3.235-2.351-5-2.643s-1.471-.881-5-1.468-3.235-4.408-4.409-1.178-.589,2.351-2.355,3.527-3.527,3.527-4.7,3.527-5.878.292-6.764-.294-2.351-1.176-5.293-1.176-2.94.292-6.764-.294-6.762-.294-10.291-2.057-3.527-2.938-6.467-2.646-2.94-.587-7.057-.587-9.113,2.351-11.763,2.646-8.524-.294-10.584-1.176-2.645-2.938-10.291-2.059-12.057.883-10.586-1.468,3.235-4.7,4.117-4.995,2.938-1.762,1.467-2.349a17.458,17.458,0,0,0-6.467-1.764c-3.525-.294-3.237,1.176-8.528.587s2.942-2.055-7.936-1.76a114.875,114.875,0,0,0-14.7,1.174c-1.174,0-2.648-2.349-5.588,1.176s-7.059,5.581-12.937,5.876-6.177-.587-11.76,1.468-9.117-.587-7.94,4.113,2.647,6.465,2.647,7.346-2.647,6.759-5.88,3.232-9.117-17.337-6.471-7.932,8.526,12.635,2.94,14.1-5-.589-5.882-1.176,0-4.7-.293-7.051a7.865,7.865,0,0,0-2.058-4.995c-1.174-1.176-.884-2.94-3.235-3.527s-.295-1.764-4.117-1.764-7.055-2.351-6.173,2.94,1.762,1.762,4.112,6.757,6.764,1.47,3.529,4.995-11.76,2.351-13.819.881-1.471.589-5.295-2.055-2.646-4.7-7.055-2.646-5.882,5.876-7.646,4.406-5.88,2.057-7.351.294-7.353-1.762-8.526,0-4.706,1.47-9.7,3.821-3.529.292-9.7,5.289-9.708,9.106-11.762,5.876-13.234-8.816-8.822-9.7,6.469-2.643,8.822-.587,6.177,1.47,6.76,0,3.237-2.938-.293-4.7-3.822-.589-9.408-2.643,0-1.47-7.646-2.646-10.883-1.762-12.939-2.349-5,0-7.937-.294-5-.881-7.648-.587-4.115-.294-7.644,2.349-6.179,3.821-8.53,5.876-8.524,6.17-10.289,7.642-7.94,6.168-8.528,7.932.587,3.232-1.766,4.406-4.7,1.176-6.469,1.47,0-2.646-1.764.292-1.176,13.516.295,12.046.587-6.168,7.057-1.76,10.586,3.819,10.291,7.93,4.409,3.821,5,4.7,3.529-1.176,3.529-1.176,6.469-4.113,6.469-6.17,4.117-6.757,4.117-6.757-2.942-1.468-2.942-4.408.884-3.821,1.471-6.759-3.235,0,5.588-5.583,9.407-1.76,9.407-1.76,1.176,1.176-.295,2.938-4.117,6.465-4.7,7.051,2.648,5.289,4.115,5.289,4.411-1.176,6.177-.881,4.7-.881,5.586-.294,2.94,2.351,1.469,3.821-4.7,3.23-7.055,2.643-5.882-4.7-3.824,1.176-.293,7.346-2.058,7.051-5.586-3.23-5,1.176-3.82,7.344-4.7,7.344a22.849,22.849,0,0,1-2.645-.292s-2.65-.294-4.119-.294a9.126,9.126,0,0,0-5.293,2.643c-.882,1.176-2.056.294-3.527.294s0-1.762-2.942-2.351-4.7-1.174-6.467,0-4.409,1.764-5.586.883.589-2.94-1.766-1.762-4.117,4.406-5,4.7,2.647,0-.882.292a21.826,21.826,0,0,0-6.762,1.762c-1.766.587.587,4.113-2.647,5.289s-.88-1.47-4.117,1.173-3.824,5-5,5.291-.884.881-3.529,1.173-2.351.587-3.824.881.295.883-2.94.294-5.588.589-5,1.762,11.468,4.408,3.233,4.113-5.584,1.176-3.822,2.351,2.645,2.349,3.529,2.643,2.351,3.821,2.351,3.821,2.353-.294.884,1.762.587,2.646-.884,5.289-1.469.881-2.645,1.468-2.94,2.646-6.177.883a20.785,20.785,0,0,0-9.408-2.938c-3.822-.294-1.176-.881-3.822,1.174a7.149,7.149,0,0,0-2.94,7.051c.295,2.643.587,6.172-.295,7.935s-.882,3.525-.3,6.17a6.436,6.436,0,0,0,2.355,3.821s4.117.587,5,.881,2.647-.587,5,.879,4.706,2.059,6.175.3,7.351-3.821,9.117-5.583,2.938-2.349,2.058-4.111,1.764-6.172,3.235-7.051a25.4,25.4,0,0,1,4.7-1.764l3.527-5.289s2.942-3.232,4.411-2.938,9.7,3.232,9.117-.587.587-4.995,1.469-3.527,3.233.881,3.233.881a1.857,1.857,0,0,1,2.058.294c.882.879,2.058,4.7,3.822,5.583s3.235,1.762,4.413,2.349,2.353,0,4.7,2.057,4.706,3.234,5,4.113a14.409,14.409,0,0,0,2.353,2.938s2.058.587,1.471,1.764-3.527,4.7-5,5.287-5.291-.589-3.824.589,3.529,2.646,4.413,1.762,6.467-6.759,6.467-6.759-.295.294,0-1.47,0-3.817,1.471-2.938,2.351,2.059,2.94.883,1.174-.587-.295-1.468-5-5.878-6.764-6.17-6.177-3.234-6.177-3.234-.88-.881-2.938-3.23-2.646-1.764-3.237-3.821-2.353-4.7.882-4.113,5.293,2.643,8.235,4.408,2.353,2.349,5,4.113,2.942,3.527,5,3.232a3.847,3.847,0,0,1,4.411,3.819c0,2.646.587,5.583,1.174,6.172s2.351,1.762,2.942,2.938A44.7,44.7,0,0,0,544.105,412a36.017,36.017,0,0,1,2.646,3.529c.884,1.468,1.178-.294,2.058.294s2.06.29,2.06-.883a30.726,30.726,0,0,1,.293-3.232s4.119-1.176,2.942-1.764-4.708-4.113-4.411-5.287,0-3.525,1.469-3.232,2.94,2.938,6.175.587,7.057-3.525,5.88,0,.3,4.111,0,7.932,1.178,2.646,3.237,4.7a11.445,11.445,0,0,0,5,2.938c1.469.587,3.822.294,6.175.591s3.824-.883,5.882-.3,6.762-.294,7.646.3,4.411-1.176,4.7.879,1.471-.292.589,4.408a55.5,55.5,0,0,1-2.058,7.932c-3.235,6.17-4.411,7.64-5.88,7.935s-2.353,1.174-5,.881-5.882,0-9.7-.881-10.881.881-13.821-.883-7.057-.292-8.822-2.349-4.7-1.764-5.88-2.938-1.764-4.406-1.764.294-2.648,4.995-3.235,7.346.882,1.176-2.353.881-4.117,1.468-8.822-2.057-7.057-3.525-9.408-4.995-4.706,2.641-7.057-2.057-5.588-.883-5.882-4.7a17.023,17.023,0,0,1,.295-5.876c.295-2.351,3.529-4.408,2.058-5.287s-.295-2.351-2.353-1.47-5,1.176-7.349,2.057,5.291,0-6.177.883-14.7,2.055-14.7,2.055-.882-.587-2.353.587-3.527,2.94-5.586,2.059-3.235-.589-5-.294-2.938-1.468-5,0-4.409,2.057-5.293,1.468a14.256,14.256,0,0,1-2.355-2.944Z" fill="#032d60"/>
    <path id="Path_30" data-name="Path 30" d="M649.662,614.44c-.88,3.232-4.115,7.932-4.115,7.932l-5.882,2.938a12.084,12.084,0,0,1-3.235,2.057,33.233,33.233,0,0,0-4.117,1.766s-2.645-.589-1.766,2.053,1.178,5.878.882,6.759a21.281,21.281,0,0,0-.291,5c0,2.351-.882,5.285-2.355,5.876s-2.938,1.176-2.645,3.232.3,8.227.3,8.227l3.822,5.876a6.191,6.191,0,0,1,3.529-.881c2.353,0,4.7-2.055,4.7-2.055s2.648.587,2.353-2.643,1.177-7.053.88-7.935,2.647-4.7,2.647-5.581,2.942-4.995,2.942-6.465,2.058-3.821,2.351-5.581.587-5.876,1.174-7.051a7.808,7.808,0,0,0,.884-3.525v-3.527l-2.06-6.469Z" fill="#032d60"/>
    <path id="Path_31" data-name="Path 31" d="M879.9,654.107c-.882,1.174-1.469,13.81-2.056,15.278s-1.768,9.11-1.176,10.87,1.469,8.227.882,10.286.295,8.519-1.179,8.227-2.054.294-2.054,1.174,2.054,2.643,2.054,2.643a38.338,38.338,0,0,0,5-.294c1.471-.294,4.413-1.762,6.764-1.762s3.824-1.764,5.88-1.764,6.469-1.468,7.646-.879,2.94-3.527,5-2.643,6.472-2.059,8.53-2.059,2.938-3.232,5.293-2.643,6.762-1.174,8.82-.3,5.293-2.936,6.762,0,5.882,4.115,5.882,5.583-.3,4.7-.3,4.7l3.531-.294s5.583-3.527,6.469-3.527,2.938-2.938,2.938-1.466-1.764,4.7-2.351,6.168.585,3.232.585,3.232,2.944,1.47,1.766,4.113.295,2.059,0,4.113,0,1.174,1.176,2.349,3.237,3.236,5,2.942,2.351-2.057,3.822-1.178,4.409.294,5.291,1.47-5.584,4.111,5.592-.881,12.346-6.172,13.817-7.935,3.239-3.525,4.411-4.7a14.931,14.931,0,0,1,3.822-3.525c3.529-2.643,3.529-1.47,6.766-6.465a52.557,52.557,0,0,1,6.175-7.638c.589-.883,1.764-1.176,2.058-4.7s2.645-6.757,2.645-7.932.882-2.934.587-4.993,1.176-4.995-.587-7.932.882-4.111-1.766-5.291-4.411-.585-5-2.643-2.942-1.762-3.824-7.344-4.409-6.172-4.409-6.172-3.529-1.47-2.648-2.055,1.176-4.7.886-5.878-.3-3.819-1.179-5.581-1.469-4.111-2.351-6.172-2.351-2.643-2.942-4.995a11.436,11.436,0,0,0-1.764-3.819c-.295-.587-.884-3.525-1.471-.294s-1.766,9.4-1.766,9.4-2.351,5-3.235,6.465-1.762,5.289-3.233,4.995-2.355,1.47-3.529,1.174-2.94.294-3.822-.585-3.235-3.232-4.411-3.529-2.058-2.641-2.942-2.641-2.351-2.059-2.054-3.232.585-3.819.88-4.995a20.2,20.2,0,0,1,2.058-3.821s0-1.762-1.471-1.762a40.878,40.878,0,0,1-5-.294c-3.235-.3-4.115-.587-5.293-.587s1.176-.587-2.058.292-4.706,3.232-6.762,5.289-.293,1.47-2.054,2.057-1.473-1.47-2.65,1.764.589,4.113-.3,4.7S934,624.133,934,624.133s1.471-.294.293-1.762-2.351-3.525-4.112-2.643-3.239,1.472-4.413,2.94-1.176,2.641-2.058,3.819-3.233,1.174-3.529,2.349-.295,4.113-1.172,4.406-1.177-1.171-2.058-1.466-.589-2.646-1.176-1.176-1.174,1.174-2.056,3.525-1.177,4.408-2.06,4.7,0,.589-2.648,2.059-3.233,1.466-7.055,3.23-2.94,1.764-5.588,2.057-3.235,1.178-5,1.468a7.207,7.207,0,0,0-4.706,2.353,9.133,9.133,0,0,1-4.407,2.643,6.331,6.331,0,0,0-2.359,1.47Z" fill="#032d60"/>
    <path id="Path_32" data-name="Path 32" d="M897.243,538.047c-1.172,1.764-4.994,7.051-6.465,7.348s-2.942,1.764-4.119,1.468-3.822,0-4.7,3.821-2.353,5.876-3.237,5.581,1.469,5.581-3.527,3.232-3.233,2.057-3.822,3.234.882,4.406,1.176,5.583a18.344,18.344,0,0,0,2.351,4.991c1.176,1.76,2.058,3.821,4.117,3.234s8.526,0,8.526,0a14.441,14.441,0,0,0,3.824.883c1.469,0,1.764-.587,2.646-.587s2.645-2.94,2.351-3.234-1.172-1.176.591-2.94,3.822-2.347,4.117-4.406-.589-2.055.295-3.232,2.938-.879,2.351-2.057.587-.883-.589-3.234-2.645-3.23-1.471-6.17,2.357-3.525,2.06-5.289,1.471-2.349-.589-4.408-2.938-2.643-4.409-3.232l-1.469-.587Z" fill="#032d60"/>
    <path id="Path_33" data-name="Path 33" d="M954.876,567.432c1.176-.3,5.293-3.234,5.588,2.057s.587,3.817,2.353,6.755,2.936,3.823,4.994,2.353,4.413-1.47,5-4.113.589-2.643,2.351-2.643,2.353-.294,3.239.883,1.467,0,5.291,2.057,7.057,1.464,9.412,3.523,3.527,1.766,6.762,2.94,1.764-.587,4.7,2.646,1.768,4.109,3.235,5.581,2.648-1.178,2.058,2.349-4.7,0,1.473,4.993,7.057,5.88,9.113,7.348,3.527,3.232,1.766,3.232-7.351,0-7.939-.883-3.235-1.47-5-3.525-5.586-3.527-6.465-5.287a3.658,3.658,0,0,0-3.529-2.353c-1.471,0-2.938,1.764-5,3.821s-1.172-1.174-3.822-.294a8.068,8.068,0,0,1-7.057-1.47c-1.471-1.173-1.174-2.936-3.525-2.057s-3.822.3-2.942-1.468a6.873,6.873,0,0,0,.295-4.113s.882-2.94-1.174-3.527S974,583.591,971.938,583a50.165,50.165,0,0,1-5.293-2.057,4.656,4.656,0,0,1-1.176-.292,31.573,31.573,0,0,0-3.235-.881c-2.355-.587-4.119,0-5.293-1.472a4.3,4.3,0,0,1-.589-3.525s4.706.589,0-2.938l-4.7-3.523a.647.647,0,0,0,.293-.883c-.3-.591,2.936,0,2.936,0Z" fill="#032d60"/>
    <path id="Path_34" data-name="Path 34" d="M822.553,543.038a4.833,4.833,0,0,0,3.824,1.176c2.353-.294,4.112,4.7,5.588,6.465a19.178,19.178,0,0,0,5.586,4.7c3.233,2.055,2.94-1.762,7.351,4.408s2.351,2.351,4.409,6.168,3.235,5.878,4.411,6.763,2.058,3.228,2.355,4.111,2.349,3.525,2.349,4.408.591,3.23-1.174,5.287a6.618,6.618,0,0,1-3.235,2.351s-3.527-1.764-4.706-3.525a77.786,77.786,0,0,1-4.7-6.757c-2.06-3.527-4.411-7.348-5.588-9.108s-2.94-3.531-3.822-5.291-3.235-7.051-4.409-7.638-1.471-2.353-3.531-4.41-1.762-3.819-2.645-4.995-2.938-3.821-2.938-3.821l.88-.292Z" fill="#032d60"/>
    <path id="Path_35" data-name="Path 35" d="M250.651,772.225c-2.06-1.176-6.469-3.234-7.941-4.408s-5.88-7.644-5.88-7.644L233.6,754s-3.822-4.7-2.94-6.462,2.645-2.94,2.645-3.821,1.766-3.234.295-4.111-1.471-1.176-2.355-3.821-.88-5-2.054-5.583-2.06-4.406-3.237-4.7-2.353-2.351-2.353-2.351l-1.764-23.8s-.589-10.87-1.176-13.224.882-7.344-.589-11.754.295-9.693-.589-11.455.589-6.759-.293-11.459,3.527-10.576,0-12.34-.882-4.408-3.822-4.408-5-1.47-7.646-3.525-7.646-5.878-9.115-7.348-6.175-5.287-7.646-6.461-2.94-6.172-4.117-7.644-1.762-5.874-3.527-8.517-4.117-7.051-4.706-7.935-7.057-8.519-7.057-8.519l.587-4.7s4.411-2.643,3.822-3.527.295-1.764-1.764-3.527a4.353,4.353,0,0,1,0-6.463c1.764-1.47,4.409-6.17,4.409-6.17l4.411-7.346s3.529-3.821,3.529-6.465,5-4.406,2.058-6.759-1.469-4.408-2.353-6.168-.293-2.94,2.353-4.7,7.349-8.229,7.349-8.229a38.229,38.229,0,0,1,4.413-.881c.88,0,2.351-9.4,5-3.232s3.529,2.938,2.645,7.344,1.176,3.529,2.351,2.353-.589.881,1.766-4.408,1.469-7.053,2.94-5.583,2.056,1.764,4.7,2.646,3.529.587,4.409,2.349.589-.587,5.588.3,12.055-1.764,11.173,1.174-2.645-.294,1.469,2.94,4.706,3.817,7.059,4.408,4.409.292,7.938,3.817,4.411,3.821,5.291,5.583,2.353.587,3.824,2.349,3.527,1.764,5.586,1.764,0-1.764,3.235.589,5.588,2.639,7.057,7.344,4.411,4.408,2.058,9.11-7.055,6.759-5,6.463,5.882-2.055,7.057-1.762,1.764-.881,3.529,0,2.06-1.176,1.766.881-.3,0-.3,2.059-.587-2.059,2.942-1.178,1.469-1.764,5.584,2.057,4.119,2.648,5.588,4.7,2.94-1.174,3.824-.294,3.529.29,6.175.881.882-1.762,5,.881,8.231,1.762,9.113,4.113,3.237,1.466,4.411,2.938,1.764-.589,2.94,1.47,4.706,1.468,4.119,3.523.878.883.291,3.821-2.648,7.64-4.409,8.814-1.764,2.643-2.94,4.114-.882-1.47-2.353,2.645-1.174,4.7-2.353,8.519-.293,0-1.174,3.821-.293,6.168-1.176,10.578-.587,4.408-1.174,7.638,1.469-1.466-1.176,5.289-2.94,6.462-3.824,9.4.295.587-2.938,2.351-1.471,1.174-5.3,2.351-8.526,2.353-10,2.643-7.349,2.057-5.586,5.581,1.766,4.115,0,8.523-4.409,5.878-4.409,7.93-1.178,4.111-1.469,5.581,2.645-1.47-.884,2.94-3.822,3.232-5,5.878,0,.585-1.174,2.643-4.119,2.936-4.119,2.936.293,1.47-.884.883-.88.292-5.293-.883-5-4.111-5.586-2.057.295,3.232,2.94,5.289,7.059,2.643,5.88,4.7a21.014,21.014,0,0,1-2.056,3.23c-.884,1.178,1.176.3-.884,1.178s-3.235,4.7-4.117,4.7-1.471,1.47-2.648.883-4.115-2.646-4.7-1.47-1.764-1.47-1.469,2.643.882,6.463-.587,7.346-5,0-5,0l-.587-1.47-2.058.587s-.88,3.527.589,4.115,1.176,1.171,2.645,2.934.589,5,.589,5,0,.881-1.469,2.351A8.982,8.982,0,0,0,253,744.9c-.293.881-2.058,4.7.589,4.408s4.706-1.764,4.706,2.936,1.174,3.529-.293,6.759-2.648,3.527-2.942,6.463.3,3.232.884,5,2.058.877.587,1.76-5.876,0-5.876,0Z" fill="#032d60"/>
    <path id="Path_36" data-name="Path 36" d="M174.788,533.053l-2.058-2.936a4.1,4.1,0,0,0-2.353-2.057c-1.471-.292-4.706-4.113-4.706-4.113a4.382,4.382,0,0,1-1.469-3.232c0-2.055-1.176-5.289-.3-8.814s1.176-7.932.884-9.108,1.471-1.47-.587-2.646-6.177-1.468-8.822-1.468a21.006,21.006,0,0,0-6.469,1.176c-.587.292,3.235-8.814,3.822-10.284s3.235-7.932,3.235-8.814.882-1.176-.882-2.349-4.7-1.764-6.467-.883-1.471-1.174-2.94,2.349-2.94,7.348-4.708,7.935-5.289,2.351-5.289,2.351-4.411-.294-5.882-.587-7.646-3.527-8.82-5.583-1.764-6.465-1.764-8.519,3.233-8.225,2.938-9.7,3.237-7.344,2.942-8.227.587-3.819,1.467-4.995,5.3-2.643,6.469-3.819a13.522,13.522,0,0,1,5.293-3.232,21.819,21.819,0,0,1,5.293-1.176c1.471,0,5.293-3.232,5.88,0s3.237,2.057,4.706,2.349,1.764,1.764,4.117-2.055,4.706-5,4.706-4.115,3.822-.292,4.409.589,1.764-.589,3.822,1.176,5,2.057,4.7,2.938,1.176.879,1.176,1.762,1.176-2.057,1.176,3.232a22.308,22.308,0,0,0,1.471,8.521s2.056,4.408,2.94,3.525,2.645-3.23,2.645-3.23,2.938-1.764.882-7.935-.589-7.932-1.176-9.989-.589-3.234,2.94-5.878,12.055-8.519,14.113-9.695,6.762-4.406,6.762-4.406a4.25,4.25,0,0,0,2.058-3.232c.3-2.351,5.88-6.467,6.175-7.64s4.119-4.113,4.119-4.113,4.114-2.351,3.822-3.819,5.293-4.111,6.173-4.111,5.59,1.468,5.59-1.178,0-3.232,2.94-5.581,6.762-5.878,8.233-5.878,6.469-2.641,8.526-3.23,8.53-3.527,2.648,0-2.058,1.47-3.235,4.408-2.058,6.757,3.527,2.349,5.293-5.289,7.351-5.581.587.881,5-.589,4.706-2.057,4.706-2.057,2.058-1.762.882-2.643,1.176-2.057-3.235-.294-4.117,2.057-7.057,1.176-7.351-.589-4.117-3.529,7.351-3.819,4.706-4.995-9.41.3-10.293.589-2.938-.294-4.7,0-1.176-2.349,0-2.938a50.99,50.99,0,0,1,9.7-3.527c4.7-1.173,16.172-1.468,18.817-1.468s6.175.589,8.235-.881,6.173-3.819,6.762-5a13.143,13.143,0,0,1,2.94-2.936s2.645-2.646,1.176-3.821-2.942-3.819-4.117-3.232-.293,4.116-2.645.294-2.06-4.406-3.235-5.289-2.353-.294-1.471-4.406a17.964,17.964,0,0,0,.589-5.878s.882-3.523,0-3.817-1.469-1.176-2.94-.3-9.7,5-11.466,5.878-4.119-3.527-3.239-5.581.3-.883-.88-3.821-5.88-3.527-7.646-3.527-5.88-2.643-7.057-.881a52.47,52.47,0,0,1-8.528,7.932c-1.178.591-2.938-4.993-3.822,4.113s3.235,11.756-1.469,12.342a24.087,24.087,0,0,0-8.82,3.23s-3.822.294-3.822,2.646-1.469,7.932-3.235,8.519-6.177-.292-7.648-2.057.3-8.227.3-8.227l2.645-2.643s-18.817-2.936-18.527-4.113-5.584-3.23-6.173-4.995-.884-5.583-.295-7.051,8.528-8.519,12.644-9.989,11.173-4.7,13.231-5.289,5.586-.292,6.762-1.762a9.542,9.542,0,0,0,1.471-4.113s-.587-4.113.587-3.527,3.235,1.47,3.529,2.351.295,2.938,2.353.585,4.706-3.232,7.057-4.4,5.878-.881,7.941-2.057,5.586-2.351,5.878-5.289-.882-2.057-2.351-2.351.587.294-4.411,2.643-3.527.589-7.057,2.351-3.824,2.057-4.117.587a9.057,9.057,0,0,1,.589-3.819s.293-.294-1.766-.879-2.058.292-2.353-2.351,1.471-6.465-1.469-5.289-5.586-.881-7.644,4.995-9.117,12.048-10.883,10.578-2.056-1.764-3.527-1.764-3.529-1.762-6.177-2.057a91.072,91.072,0,0,0-12.64,0c-2.06.3-4.413-1.174-6.179.589s-4.407,4.113-4.407,5-2.648-3.234-3.529-2.938-3.237-1.176-5.88-1.176-4.411-1.47-5.293-1.47.882-2.351,0-2.646-20-.881-20-.881-6.175-2.349-8.526-2.055-8.82.587-13.821,1.468-12.35,3.819-14.7,4.113-7.644.294-8.528-1.176.295-1.174-.882-1.468-.293-.881-2.94-2.938,1.176-3.819-4.115-3.819-8.528-.294-13.231,0-14.408,2.643-15.584,2.351-10.584,1.468-12.057.587-8.822,3.232-10.289,2.938-7.057.294-8.526,1.176-8.528,2.643-6.177,4.113,2.058,2.938,2.353,3.821-2.353,2.936-2.353,2.936A18.094,18.094,0,0,1,26,306.237c-3.233-1.176-6.764-1.762-8.233-.883S13.653,308,14.24,309.177s4.7,3.819,5.293,2.936,2.06-2.643,3.822-2.349,4.411-1.176,2.06,1.764-4.411,4.406-5.882,4.7-5,.587-8.233.881-2.94-1.173-5.882,1.764-4.115,1.174-4.7,4.408-1.176,3.23,0,4.111-2.355,1.176.293,2.057,5.88,1.762,5.588,2.643,2.94-1.174,1.174,1.176-2.94,4.406.589,2.057,5.584-.589,8.526-2.057,5.882-1.764,7.644-2.938,2.648-2.938,5.3-3.821.882.294,1.174,1.762,0,1.764,1.766.589,1.764-.294,4.115-1.764,5-2.938,6.764-2.057a6.153,6.153,0,0,0,3.529.883c1.176,0-1.469-.3,1.176,0s-1.176-.883,7.644,1.174,11.175.589,11.76,3.819,1.768-.294,3.235,1.764,2.355.294,3.235,3.819,0,13.221-.587,14.4-.882,1.176-.587,3.819S76.87,370,75.694,370.874a10.15,10.15,0,0,1-3.822,1.176L70.4,377.337a45.324,45.324,0,0,1-4.411,6.759c-2.058,2.351-4.7,5.289-6.175,7.344s-2.648,5.583-4.706,7.64-3.822,1.176-3.235,5.581,0,9.108.591,12.342,2.056,7.638,3.233,9.4,2.058,1.762,4.117,3.23,4.706,3.234,4.411,4.7.293,10.58.293,10.58a16.576,16.576,0,0,1,2.058,6.168,17,17,0,0,0,2.351,6.465l1.768,3.821s.88.294,2.058,2.643a12.352,12.352,0,0,1,1.469,3.525c.295,1.178.295.881.295,1.178s-.295-5-.884-6.467-.587-3.23-1.174-4.995.295-3.821-1.471-6.465a16.149,16.149,0,0,1-2.645-5.581c-.88-2.643-2.058-5.583-.88-6.172s2.058-4.406,4.409,0,2.648,3.234,2.94,6.759a11.448,11.448,0,0,0,2.058,6.17c.882,1.468,2.94,6.465,4.117,8.519s0-1.174,2.645,2.94a46.328,46.328,0,0,1,4.411,8.225c1.471,3.232,2.355,3.232,3.235,5.583s.295,1.764-.295,4.408a10.947,10.947,0,0,0,.587,5.581s4.119,1.468,4.411,2.349,4.409,2.351,5,3.527,4.411,2.643,4.411,2.643,3.235,2.057,4.409,2.643a26.405,26.405,0,0,0,4.708,1.178s2.351.589,3.233.881a18.347,18.347,0,0,0,3.529.294s2.351-1.762,3.235-1.176,2.938-1.178,3.822.292,2.645,1.47,3.527,2.645,1.764,1.176,3.235,2.643,2.94,1.176,4.411,2.351,2.645,1.173,4.409,1.173a8.179,8.179,0,0,1,2.94.294c1.178.3,1.766-.881,2.94.589a33.118,33.118,0,0,1,2.938,3.821c.884,1.466,2.942,1.466,3.237,3.817s.88,2.061.88,4.113a3.914,3.914,0,0,0,2.06,3.529c.88.585,4.115,3.523,4.115,3.523l4.411.881,3.529,2.643Z" fill="#032d60"/>
    <path id="Path_37" data-name="Path 37" d="M269.026,260.1l17.643-2.2s6.175,0,9.262-2.2,0-2.2,9.262-3.966,6.617-2.646,11.468-1.764,6.175.883,11.468,1.764,6.615-.44,11.466.881,7.059.881,11.028.881h12.348c6.177,0,11.912-3.527,14.115-1.323s3.527,1.323,11.026,2.2,10.586-.883,13.673,0,8.382-.44,14.555,0,9.264-.44,11.468-.44,4.409-3.087,7.5-.442,7.057-.881,7.5,2.643,6.173.881.442,3.527-4.851,2.2-8.822,5.729,2.645,6.612-5.735,9.7-9.7-1.762-11.908,3.525,0,6.612-.442,9.257-1.322,3.085-3.969,5.287-2.645,0-8.82,1.323-10.586,2.646-13.232,2.646-8.378,2.2-10.146,3.083,3.089,2.2-6.173,4.849-11.47,2.2-14.115,5.729-1.766,3.968-3.527,6.172-7.057,11.018-9.7,8.816S342.68,324,340.475,321.8s-3.527-5.287-4.851-7.051-1.764-6.17-2.2-8.816-4.411-8.814,0-7.932,7.055.442,8.38-.44,2.645-3.966,2.645-3.966-.44-4.849-1.766-7.493-.44-4.849-2.645-7.493-2.206-2.2-5.293-4.847-2.206-3.968-7.057-4.408-6.175-1.762-7.941-1.321-7.5-3.087-1.322-3.527a60.492,60.492,0,0,1,11.908.44s7.939-3.525,5.293-3.966,3.967-4.408-2.2-3.085-13.232,3.085-15,3.527-6.175.879-10.586,2.2-9.7.883-12.348,3.968,0,3.525-2.648,3.085,2.206-3.085-3.969,0-4.411,2.643-7.5,1.762a24.4,24.4,0,0,1-5.293-2.2s3.973-.442-1.762-.881-5.735-.44-7.941-3.085-.88-2.645.442-3.527a7.89,7.89,0,0,0,2.206-2.646Z" fill="#032d60"/>
    <path id="Path_38" data-name="Path 38" d="M259.322,279.929c-2.2,2.2-7.5,5.289-6.175,6.612s2.208,6.17,4.855,4.847-.442-5.729,9.7-2.2,9.26-.44,11.466,4.849,3.969,9.253,2.645,10.578-1.764,2.643-6.175,3.966-6.175,3.085-3.087,5.289,8.82,4.406,11.466,5.729,10.586,1.764,6.617-2.643.882-5.729.882-5.729,7.5,5.729,4.853-.883-4.411-6.61-2.648-6.61,5.293,2.2,5.293,2.2l1.766-3.525-1.766-5.731-5.733-5.729s4.851-4.408-1.766-5.289-6.175-.881-9.7-3.085-3.967-3.085-10.586-1.762a59.466,59.466,0,0,0-8.818,2.2Z" fill="#032d60"/>
    <path id="Path_39" data-name="Path 39" d="M160.969,285.218c2.645-2.646,9.7-8.814,12.35-7.051s6.613-1.323,9.7,1.323,6.615,5.729,9.262,6.61,5.733-2.2,8.38-.881,11.906-6.612,10.144-.44,2.2,7.932-2.648,8.374-10.144,3.966-12.35,2.646-3.969-2.646-7.5-.881-1.764,1.76-5.735.881-4.851.879-5.731-.442-3.529-.881-3.089-4.849,1.764-3.525-.884-3.525-4.849.44-6.613-.881S160.969,285.218,160.969,285.218Z" fill="#032d60"/>
  </g>
</svg>
